<?xml version="1.0" encoding="UTF-8"?>
<svg xmlns="http://www.w3.org/2000/svg" width="64" height="64" viewBox="0 0 64 64">
  <defs>
    <filter id="glow">
      <feGaussianBlur stdDeviation="1" result="coloredBlur"/>
      <feMerge>
        <feMergeNode in="coloredBlur"/>
        <feMergeNode in="SourceGraphic"/>
      </feMerge>
    </filter>
  </defs>
  <g fill="#22c55e" filter="url(#glow)">
    <!-- G letter -->
    <rect x="4" y="16" width="4" height="4"/>
    <rect x="8" y="16" width="4" height="4"/>
    <rect x="12" y="16" width="4" height="4"/>
    <rect x="16" y="16" width="4" height="4"/>
    <rect x="4" y="20" width="4" height="4"/>
    <rect x="4" y="24" width="4" height="4"/>
    <rect x="4" y="28" width="4" height="4"/>
    <rect x="4" y="32" width="4" height="4"/>
    <rect x="4" y="36" width="4" height="4"/>
    <rect x="4" y="40" width="4" height="4"/>
    <rect x="8" y="44" width="4" height="4"/>
    <rect x="12" y="44" width="4" height="4"/>
    <rect x="16" y="44" width="4" height="4"/>
    <rect x="20" y="40" width="4" height="4"/>
    <rect x="20" y="36" width="4" height="4"/>
    <rect x="20" y="32" width="4" height="4"/>
    <rect x="16" y="32" width="4" height="4"/>
    <rect x="12" y="32" width="4" height="4"/>
    <!-- V letter -->
    <rect x="28" y="16" width="4" height="4"/>
    <rect x="28" y="20" width="4" height="4"/>
    <rect x="28" y="24" width="4" height="4"/>
    <rect x="32" y="28" width="4" height="4"/>
    <rect x="32" y="32" width="4" height="4"/>
    <rect x="36" y="36" width="4" height="4"/>
    <rect x="36" y="40" width="4" height="4"/>
    <rect x="40" y="44" width="4" height="4"/>
    <rect x="44" y="36" width="4" height="4"/>
    <rect x="44" y="40" width="4" height="4"/>
    <rect x="48" y="28" width="4" height="4"/>
    <rect x="48" y="32" width="4" height="4"/>
    <rect x="52" y="16" width="4" height="4"/>
    <rect x="52" y="20" width="4" height="4"/>
    <rect x="52" y="24" width="4" height="4"/>
    <!-- Period -->
    <rect x="56" y="40" width="4" height="4"/>
    <rect x="56" y="44" width="4" height="4"/>
    <rect x="60" y="40" width="4" height="4"/>
    <rect x="60" y="44" width="4" height="4"/>
  </g>
</svg>
